<?xml version="1.0" standalone="no"?>
<!DOCTYPE svg PUBLIC "-//W3C//DTD SVG 1.1//EN" "http://www.w3.org/Graphics/SVG/1.1/DTD/svg11.dtd" >
<svg xmlns="http://www.w3.org/2000/svg" xmlns:svg="http://www.w3.org/2000/svg" xmlns:xlink="http://www.w3.org/1999/xlink" viewBox="0 0 2048 2048"><path d="M546 375.5Q481.58070458069284 372.5 513 362.5Q442.1418832783976 346.5 485 334.5Q530.5374517473936 323.5 514 319.5L578 311.5L698 297.5L854 277.5Q963.7905111680479 269.5 929 268.5Q926.0437213850454 266.5 984 262.5Q1049.1438514634335 253.5 1017 255.5Q984.9266636795523 258.5 1031 256.5Q983.4194500890458 255.5 1032 255.5L1106 243.5Q1108.903947177364 203.5 1045 180.5L1013 138.5L982 99.5Q1022.3844864187781 92.5 976 87.5Q1017.8394609425992 77.5 990 77.5Q945.2745125152893 77.5 996 77.5L1045 84.5Q1062.2230218361926 93.5 1167 125.5Q1155.609051962955 145.5 1205 181.5Q1249.9631052781433 197.5 1202 206.5L1193 233.5L1344 212.5L1424 201.5Q1483.5032392693622 199.5 1475 193.5Q1545.0686621561824 189.5 1515 186.5L1523 185.5Q1597.4484544230377 179.5 1562 179.5Q1532.09860035636 179.5 1629 200.5Q1647.7165072086282 230.5 1697 250.5Q1743.8756515466912 267.5 1654 270.5L1608 273.5Q1546.3690419800314 275.5 1547 276.5L1534 277.5Q1265.383198811736 286.5 926 334.5L742 364.5L666 375.5Q711.5281200822033 378.5 674 382.5Q743.3603226811533 404.5 698 413.5Q649.8113168307692 420.5 689 439.5Q635.7890854669541 460.5 676 498.5L668 564.5L657 695.5Q601.5406390312301 851.5 599 1070.5Q554.5403202300449 1514.5 306 1717.5L267 1756.5Q204.04609138434873 1770.5 246 1770.5Q285.44050276103815 1770.5 237 1760.5Q196.10341412999105 1753.5 242 1745.5L275 1690.5Q408.1281087008847 1543.5 424 1366.5Q553.4828956103312 1136.5 537 887.5Q605.8934146550383 670.5 565 517.5V497.5Q521.1199149812536 433.5 557 408.5ZM850 613.5L841 621.5Q864.4307870175314 642.5 804 656.5L793 666.5Q719.8977996909347 696.5 742 709.5L698 739.5Q734.7713111630103 747.5 678 747.5Q718.4482472654892 747.5 669 738.5Q620.5343914433689 732.5 678 722.5L712 684.5Q709.0963310935392 631.5 820 517.5Q904.1600373779023 447.5 861 389.5Q816.1321465941393 361.5 882 361.5H886Q962.4342692042883 361.5 966 394.5Q960.6681166207138 417.5 1002 434.5Q957.8825501256804 440.5 985 453.5Q1014.2117818261793 465.5 955 484.5L921 528.5L896 558.5Q860.6990683751029 566.5 908 573.5L912 579.5L917 584.5Q883.0436522376062 603.5 932 613.5Q976.83801755039 625.5 928 642.5Q970.7391108260786 656.5 922 692.5V709.5Q875.7875961448741 731.5 921 739.5Q965.5455575208714 749.5 920 762.5Q873.9865626089573 786.5 919 797.5Q873.9257557860932 890.5 909 916.5Q941.0055899045074 968.5 874 968.5Q910.601479138077 968.5 849 945.5Q866.5453821812273 904.5 817 873.5Q773.6615288603342 862.5 826 840.5Q901.1435147123981 773.5 854 689.5Q809.4480159572527 686.5 854 681.5ZM1185 464.5Q1235.358541088921 456.5 1349 442.5L1416 429.5Q1446.751926107387 415.5 1397 405.5L1369 366.5Q1293.6136577018876 337.5 1343 324.5Q1299.772813545016 315.5 1354 315.5Q1407.5602617218585 315.5 1391 320.5L1403 322.5Q1528.9432233559287 338.5 1487 383.5Q1439.8341198834933 387.5 1486 392.5L1480 419.5Q1448.063095056682 416.5 1507 413.5L1520 411.5Q1497.3569938899095 406.5 1544 406.5Q1504.543050520248 404.5 1563 401.5Q1618.0320650884344 399.5 1574 398.5Q1634.878620239333 394.5 1602 394.5Q1673.160865566986 395.5 1654 409.5Q1726.6712834194273 423.5 1680 436.5Q1635.159163657538 453.5 1609 463.5H1603L1592 465.5Q1624.9661436759225 467.5 1570 468.5Q1502.8014406633101 471.5 1544 472.5L1465 485.5L1463 554.5L1499 549.5H1501L1505 548.5L1509 547.5L1514 546.5L1521 545.5L1525 544.5L1530 543.5Q1509.9760727335083 538.5 1556 538.5H1558H1559Q1608.5431127885859 538.5 1567 539.5L1577 540.5Q1609.9554403121892 547.5 1653 567.5Q1604.0692603884593 583.5 1574 596.5L1508 607.5L1463 613.5V677.5Q1545.0848563227773 672.5 1531 663.5L1540 661.5Q1605.0192210997961 656.5 1571 656.5Q1559.5641439610588 656.5 1629 666.5Q1708.9672158501821 679.5 1664 688.5Q1614.7397582335384 702.5 1591 713.5L1538 722.5L1463 733.5L1461 810.5Q1427.7743433920355 809.5 1488 807.5Q1454.5986562165917 806.5 1518 804.5Q1578.6758373875182 802.5 1557 799.5L1571 797.5L1585 796.5Q1591.721921359576 788.5 1652 788.5Q1636.4871255584242 788.5 1714 805.5Q1808.6418178204922 828.5 1759 843.5Q1805.2533727818522 857.5 1722 858.5L1668 859.5L1652 860.5Q1668.8155023946224 861.5 1561 865.5Q1541.4857927690302 868.5 1492 868.5Q1427.3590710369508 870.5 1467 870.5Q1403.5393026806755 871.5 1449 871.5L1328 884.5Q1334.6226495130393 888.5 1269 890.5Q1301.4165759084735 891.5 1254 892.5Q1288.6269647823858 893.5 1236 894.5Q1274.8097423969537 895.5 1224 895.5H1219Q1167.1474387051983 895.5 1209 893.5L1182 885.5L1177 905.5Q1218.6863193018112 930.5 1155 930.5Q1100.5752846906864 930.5 1139 917.5Q1169.7077097450024 899.5 1114 880.5Q1138.2690245106635 843.5 1097 824.5V820.5Q1048.0301272359623 815.5 1106 790.5Q1069.6090653917845 767.5 1126 692.5Q1091.0539214767077 655.5 1132 620.5Q1181.4945948267175 586.5 1130 574.5L1124 541.5Q1009.9351003159962 610.5 1024 635.5L974 671.5Q1007.770040134369 676.5 961 676.5Q998.2994228851031 676.5 954 668.5Q1003.7898955600552 664.5 960 657.5L994 614.5Q970.5904469166958 583.5 1070 498.5Q1169.6573364306537 407.5 1131 342.5V338.5Q1088.0501989388463 314.5 1146 315.5Q1222.330827126865 316.5 1212 338.5Q1212.1584176221334 366.5 1261 382.5Q1213.6188204414095 389.5 1253 398.5L1235 409.5Q1271.5880024523012 412.5 1210 435.5ZM1164 490.5L1158 501.5Q1119.4882097854052 507.5 1173 517.5Q1130.6394410045518 524.5 1185 528.5Q1153.3751939379774 547.5 1205 554.5L1210 582.5Q1269.5794424950702 581.5 1245 580.5Q1229.2541706149213 579.5 1288 577.5L1371 568.5L1366 498.5L1360 499.5Q1388.7456242892033 500.5 1330 501.5L1318 503.5Q1312.5251004239208 508.5 1241 508.5Q1173.2087924461807 508.5 1205 503.5ZM1192 837.5L1201 836.5Q1175.055541984627 834.5 1226 833.5Q1192.3551372919626 832.5 1240 832.5Q1205.2147821725466 830.5 1252 830.5L1318 824.5L1374 818.5V746.5Q1411.6864860085877 747.5 1349 750.5Q1232.8306518999045 761.5 1250 761.5Q1293.7601012717107 761.5 1238 760.5L1197 757.5ZM1199 710.5Q1305.6156296243225 705.5 1292 701.5L1374 690.5Q1419.6118630537878 672.5 1375 661.5Q1326.8313733399973 657.5 1375 655.5L1371 624.5Q1322.7710817715804 625.5 1350 626.5L1338 628.5L1323 629.5Q1247.9898881769736 632.5 1266 632.5H1252H1205ZM950 1029.5Q1010.2560689671205 998.5 970 986.5Q1044.0100112555165 906.5 1002 861.5Q959.4738045395693 834.5 1020 834.5Q992.5152658534599 834.5 1076 861.5Q1166.7374022144766 891.5 1119 908.5Q1069.0877696405403 914.5 1102 923.5Q1118.6162392087067 940.5 1026 994.5L998 1027.5L1133 1006.5Q1208.5151272863468 1002.5 1215 990.5Q1288.829036589312 982.5 1283 975.5L1293 973.5L1303 971.5L1316 968.5L1328 966.5Q1298.8202620598129 963.5 1349 962.5Q1407.462789139504 957.5 1371 957.5Q1446.945131812906 957.5 1467 992.5Q1561.0461584229229 1017.5 1512 1034.5Q1462.5384618203293 1042.5 1503 1051.5L1498 1056.5L1495 1059.5Q1439.5410372314336 1069.5 1477 1085.5L1474 1090.5L1471 1096.5Q1415.0445071781623 1124.5 1453 1134.5Q1403.837066685139 1143.5 1448 1145.5Q1395.8925618747426 1152.5 1444 1154.5V1155.5L1411 1234.5Q1422.8369007850058 1320.5 1342 1320.5Q1268.70664519594 1320.5 1307 1302.5L1300 1289.5L943 1322.5L937 1390.5L1126 1364.5Q1190.5504922518883 1361.5 1217 1348.5L1236 1344.5L1248 1342.5L1259 1340.5L1265 1339.5L1270 1338.5Q1328.4706377878508 1336.5 1284 1335.5Q1245.1123944121036 1334.5 1292 1334.5Q1339.7073023062392 1333.5 1297 1333.5Q1276.3434300447273 1333.5 1363 1343.5Q1352.6664131136008 1352.5 1402 1366.5Q1358.1371824587734 1374.5 1385 1377.5L1160 1411.5Q977.3390491249475 1433.5 977 1433.5Q931.4388436626913 1433.5 968 1432.5L934 1429.5L932 1471.5L931 1484.5Q973.5053038234978 1502.5 943 1502.5Q910.0801481028666 1502.5 971 1498.5Q925.840454562684 1498.5 974 1498.5L987 1496.5L998 1494.5L1045 1486.5Q1109.1218882204782 1483.5 1100 1480.5Q1104.3844170857283 1475.5 1230 1465.5L1252 1463.5Q1303.7379052598333 1450.5 1413 1446.5L1530 1438.5Q1515.7695130471132 1436.5 1596 1431.5L1604 1430.5Q1580.5822483395402 1426.5 1642 1426.5Q1604.7830870920457 1426.5 1657 1428.5L1663 1430.5Q1635.6416162130222 1435.5 1686 1438.5L1742 1460.5Q1766.756496358526 1487.5 1811 1515.5Q1761.549918433949 1522.5 1797 1537.5Q1722.976230689197 1573.5 1750 1700.5L1748 1712.5Q1680.0374814370257 1853.5 1692 1893.5Q1581.1561046725624 1970.5 1575 1970.5Q1513.135406250838 1970.5 1549 1950.5L1530 1912.5Q1572.7196196543603 1911.5 1527 1907.5Q1479.2523013663847 1906.5 1523 1902.5Q1474.1969706182845 1898.5 1513 1888.5L1506 1878.5L1501 1871.5L1496 1864.5Q1533.7365518700256 1849.5 1483 1847.5Q1432.0530576730464 1839.5 1476 1837.5Q1430.0196126976089 1836.5 1475 1835.5L1448 1802.5Q1482.104199603939 1795.5 1442 1792.5Q1483.5852313048065 1782.5 1455 1783.5Q1498.8850839523514 1783.5 1461 1784.5L1505 1798.5Q1496.5626624892236 1808.5 1550 1813.5Q1509.3270560684205 1815.5 1557 1815.5Q1604.8311508582503 1816.5 1564 1817.5Q1609.932881701084 1819.5 1572 1819.5Q1560.1799088491302 1822.5 1626 1744.5Q1590.4360020291278 1712.5 1634 1706.5L1647 1638.5Q1698.0014562411407 1615.5 1652 1571.5Q1603.009580866288 1561.5 1652 1559.5Q1695.326798908691 1552.5 1653 1550.5V1543.5Q1607.407121065284 1501.5 1594 1501.5Q1587.938372117764 1501.5 1470 1504.5L1349 1509.5Q1300.150862536477 1509.5 1333 1511.5Q1375.9187366948497 1511.5 1308 1513.5Q1261.7475546209469 1514.5 1230 1522.5L1101 1537.5Q1002.2765606255434 1543.5 980 1562.5Q979.0030107226173 1575.5 904 1589.5Q841.7210418655213 1596.5 885 1596.5Q910.7869211035844 1596.5 839 1548.5Q783.6894903154678 1524.5 826 1516.5Q870.8570405486875 1513.5 828 1506.5Q870.7297712220037 1502.5 832 1496.5Q882.4817846178026 1476.5 846 1446.5L854 1390.5Q895.7148619151052 1387.5 854 1379.5Q896.9565647326801 1375.5 855 1361.5Q903.9026822855433 1333.5 859 1302.5L866 1149.5V1135.5V1122.5Q908.8994424070746 1084.5 857 1062.5L843 1030.5Q885.9439480947884 1021.5 839 1015.5Q797.1422165164653 1002.5 861 1002.5Q832.6163062606779 1002.5 900 1011.5Q861.817073825628 1014.5 916 1017.5Q872.0042274232192 1019.5 923 1019.5Q884.6784667563676 1022.5 933 1022.5ZM946 1270.5L1134 1244.5Q1199.1930179363844 1241.5 1185 1235.5L1192 1234.5Q1262.513817744097 1228.5 1233 1228.5Q1280.0434196760684 1228.5 1238 1229.5Q1281.3700496807528 1229.5 1245 1230.5Q1231.015940594651 1234.5 1292 1239.5Q1347.6912505722566 1242.5 1303 1242.5H1304H1305Q1261.5366599406045 1242.5 1318 1223.5L1330 1196.5L1345 1149.5Q1285.1473179784261 1151.5 1311 1154.5L1291 1158.5L1272 1161.5L1254 1164.5Q1194.5440363928453 1166.5 1232 1167.5Q1166.8810003367994 1171.5 1200 1172.5Q1238.7238776016302 1174.5 1180 1175.5Q1122.24438069365 1177.5 1163 1178.5L1099 1189.5Q985.0428182513954 1200.5 1006 1200.5Q1041.8213161413523 1200.5 985 1199.5L950 1197.5ZM954 1158.5L1149 1123.5L1205 1114.5L1222 1111.5Q1210.719842850044 1105.5 1263 1105.5Q1232.7834787024428 1105.5 1299 1109.5L1350 1119.5Q1310.6814198065856 1111.5 1354 1097.5Q1400.256078506425 1095.5 1358 1083.5L1359 1078.5Q1408.1780691751562 1058.5 1363 1044.5Q1318.3849857390421 1022.5 1346 1022.5Q1382.8717233637014 1022.5 1331 1024.5Q1266.4338390443932 1027.5 1291 1030.5Q1233.4708940467617 1031.5 1237 1038.5L1212 1042.5L1108 1059.5L1072 1065.5Q981.7987410351814 1073.5 1016 1073.5L962 1076.5Q1003.0313687864402 1081.5 960 1092.5Q909.6151616952247 1100.5 958 1111.5ZM752 1600.5L759 1627.5Q725.9337601572541 1667.5 769 1698.5Q724.6997268070993 1763.5 741 1818.5Q755.914997952893 1883.5 674 1883.5Q698.3494286087762 1883.5 641 1863.5Q669.9969630895695 1842.5 625 1804.5Q577.007894704843 1769.5 640 1746.5L669 1701.5Q721.2250682642632 1688.5 689 1662.5Q648.1615121066947 1662.5 692 1657.5Q647.1038113518765 1653.5 700 1641.5Q654.9279712621544 1637.5 705 1631.5Q751.9344414394538 1628.5 708 1627.5L722 1600.5Q777.5508174327448 1585.5 739 1585.5Q707.3858592526256 1585.5 752 1600.5ZM927 1627.5L953 1641.5Q1055.3527602419047 1670.5 1024 1696.5Q1081.6488830263827 1715.5 1037 1758.5V1767.5Q996.9580286207635 1791.5 1023 1809.5Q963.8089401683695 1829.5 993 1829.5Q1017.7155295587509 1829.5 949 1767.5Q982.4966946833343 1745.5 925 1703.5Q870.0577785205388 1679.5 912 1661.5L906 1639.5Q861.0985776167531 1637.5 905 1634.5Q855.9156011826223 1624.5 917 1625.5Q878.7483172074246 1626.5 927 1627.5ZM1374 1557.5L1402 1567.5Q1558.2140872270138 1606.5 1511 1665.5Q1558.685524624623 1699.5 1495 1723.5Q1440.9759842185008 1741.5 1466 1741.5Q1398.9043616842707 1741.5 1414 1690.5L1388 1643.5Q1421.9111251402774 1628.5 1371 1610.5L1354 1574.5Q1394.3376886844792 1566.5 1350 1563.5Q1392.8212767663351 1554.5 1359 1554.5Q1322.5093061550265 1554.5 1374 1557.5ZM1158 1675.5L1144 1645.5L1130 1613.5Q1175.6900667469727 1607.5 1127 1605.5Q1080.7850197233684 1594.5 1139 1594.5Q1184.1685457424726 1594.5 1149 1596.5L1177 1606.5Q1185.9384543192157 1627.5 1256 1659.5Q1314.3990240699627 1684.5 1273 1733.5Q1316.7297762334167 1799.5 1242 1797.5Q1249.8331678774043 1794.5 1179 1727.5Z" fill="black"></path></svg>