<?xml version="1.0" standalone="no"?>
<!DOCTYPE svg PUBLIC "-//W3C//DTD SVG 1.1//EN" "http://www.w3.org/Graphics/SVG/1.1/DTD/svg11.dtd" >
<svg xmlns="http://www.w3.org/2000/svg" xmlns:svg="http://www.w3.org/2000/svg" xmlns:xlink="http://www.w3.org/1999/xlink" viewBox="0 0 2048 2048"><path d="M546.0 375.5Q528.0 372.5 513.0 362.5Q485.0 346.5 485.0 334.5Q485.0 323.5 514.0 319.5L578.0 311.5L698.0 297.5L854.0 277.5Q922.0 269.5 929.0 268.5Q972.0 266.5 984.0 262.5Q1009.0 253.5 1017.0 255.5Q1029.0 258.5 1031.0 256.5Q1031.0 255.5 1032.0 255.5L1106.0 243.5Q1062.0 203.5 1045.0 180.5L1013.0 138.5L982.0 99.5Q976.0 92.5 976.0 87.5Q976.0 77.5 990.0 77.5Q993.0 77.5 996.0 77.5L1045.0 84.5Q1105.0 93.5 1167.0 125.5Q1205.0 145.5 1205.0 181.5Q1205.0 197.5 1202.0 206.5L1193.0 233.5L1344.0 212.5L1424.0 201.5Q1442.0 199.5 1475.0 193.5Q1501.0 189.5 1515.0 186.5L1523.0 185.5Q1551.0 179.5 1562.0 179.5Q1582.0 179.5 1629.0 200.5Q1695.0 230.5 1697.0 250.5Q1698.0 267.5 1654.0 270.5L1608.0 273.5Q1589.0 275.5 1547.0 276.5L1534.0 277.5Q1220.0 286.5 926.0 334.5L742.0 364.5L666.0 375.5Q668.0 378.5 674.0 382.5Q698.0 404.5 698.0 413.5Q698.0 420.5 689.0 439.5Q680.0 460.5 676.0 498.5L668.0 564.5L657.0 695.5Q644.0 851.5 599.0 1070.5Q510.0 1514.5 306.0 1717.5L267.0 1756.5Q253.0 1770.5 246.0 1770.5Q237.0 1770.5 237.0 1760.5Q237.0 1753.5 242.0 1745.5L275.0 1690.5Q363.0 1543.5 424.0 1366.5Q504.0 1136.5 537.0 887.5Q565.0 670.5 565.0 517.5V497.5Q565.0 433.5 557.0 408.5ZM850.0 613.5 841.0 621.5Q818.0 642.5 804.0 656.5L793.0 666.5Q760.0 696.5 742.0 709.5L698.0 739.5Q686.0 747.5 678.0 747.5Q669.0 747.5 669.0 738.5Q669.0 732.5 678.0 722.5L712.0 684.5Q759.0 631.5 820.0 517.5Q857.0 447.5 861.0 389.5Q863.0 361.5 882.0 361.5H886.0Q913.0 361.5 966.0 394.5Q1002.0 417.5 1002.0 434.5Q1002.0 440.5 985.0 453.5Q969.0 465.5 955.0 484.5L921.0 528.5L896.0 558.5Q902.0 566.5 908.0 573.5L912.0 579.5L917.0 584.5Q932.0 603.5 932.0 613.5Q932.0 625.5 928.0 642.5Q924.0 656.5 922.0 692.5V709.5Q921.0 731.5 921.0 739.5Q920.0 749.5 920.0 762.5Q919.0 786.5 919.0 797.5Q916.0 890.5 909.0 916.5Q896.0 968.5 874.0 968.5Q864.0 968.5 849.0 945.5Q818.0 904.5 817.0 873.5Q816.0 862.5 826.0 840.5Q854.0 773.5 854.0 689.5Q854.0 686.5 854.0 681.5ZM1185.0 464.5Q1280.0 456.5 1349.0 442.5L1416.0 429.5Q1403.0 415.5 1397.0 405.5L1369.0 366.5Q1343.0 337.5 1343.0 324.5Q1343.0 315.5 1354.0 315.5Q1361.0 315.5 1391.0 320.5L1403.0 322.5Q1487.0 338.5 1487.0 383.5Q1487.0 387.5 1486.0 392.5L1480.0 419.5Q1492.0 416.5 1507.0 413.5L1520.0 411.5Q1542.0 406.5 1544.0 406.5Q1553.0 404.5 1563.0 401.5Q1571.0 399.5 1574.0 398.5Q1593.0 394.5 1602.0 394.5Q1628.0 395.5 1654.0 409.5Q1680.0 423.5 1680.0 436.5Q1680.0 453.5 1609.0 463.5H1603.0L1592.0 465.5Q1576.0 467.5 1570.0 468.5Q1550.0 471.5 1544.0 472.5L1465.0 485.5L1463.0 554.5L1499.0 549.5H1501.0L1505.0 548.5L1509.0 547.5L1514.0 546.5L1521.0 545.5L1525.0 544.5L1530.0 543.5Q1553.0 538.5 1556.0 538.5H1558.0H1559.0Q1560.0 538.5 1567.0 539.5L1577.0 540.5Q1653.0 547.5 1653.0 567.5Q1653.0 583.5 1574.0 596.5L1508.0 607.5L1463.0 613.5V677.5Q1500.0 672.5 1531.0 663.5L1540.0 661.5Q1558.0 656.5 1571.0 656.5Q1604.0 656.5 1629.0 666.5Q1664.0 679.5 1664.0 688.5Q1664.0 702.5 1591.0 713.5L1538.0 722.5L1463.0 733.5L1461.0 810.5Q1470.0 809.5 1488.0 807.5Q1498.0 806.5 1518.0 804.5Q1533.0 802.5 1557.0 799.5L1571.0 797.5L1585.0 796.5Q1637.0 788.5 1652.0 788.5Q1681.0 788.5 1714.0 805.5Q1759.0 828.5 1759.0 843.5Q1759.0 857.5 1722.0 858.5L1668.0 859.5L1652.0 860.5Q1626.0 861.5 1561.0 865.5Q1500.0 868.5 1492.0 868.5Q1472.0 870.5 1467.0 870.5Q1453.0 871.5 1449.0 871.5L1328.0 884.5Q1287.0 888.5 1269.0 890.5Q1259.0 891.5 1254.0 892.5Q1244.0 893.5 1236.0 894.5Q1227.0 895.5 1224.0 895.5H1219.0Q1214.0 895.5 1209.0 893.5L1182.0 885.5L1177.0 905.5Q1170.0 930.5 1155.0 930.5Q1149.0 930.5 1139.0 917.5Q1123.0 899.5 1114.0 880.5Q1097.0 843.5 1097.0 824.5V820.5Q1097.0 815.5 1106.0 790.5Q1115.0 767.5 1126.0 692.5Q1132.0 655.5 1132.0 620.5Q1132.0 586.5 1130.0 574.5L1124.0 541.5Q1058.0 610.5 1024.0 635.5L974.0 671.5Q967.0 676.5 961.0 676.5Q954.0 676.5 954.0 668.5Q954.0 664.5 960.0 657.5L994.0 614.5Q1019.0 583.5 1070.0 498.5Q1127.0 407.5 1131.0 342.5V338.5Q1132.0 314.5 1146.0 315.5Q1174.0 316.5 1212.0 338.5Q1260.0 366.5 1261.0 382.5Q1262.0 389.5 1253.0 398.5L1235.0 409.5Q1230.0 412.5 1210.0 435.5ZM1164.0 490.5 1158.0 501.5Q1163.0 507.5 1173.0 517.5Q1180.0 524.5 1185.0 528.5Q1203.0 547.5 1205.0 554.5L1210.0 582.5Q1221.0 581.5 1245.0 580.5Q1272.0 579.5 1288.0 577.5L1371.0 568.5L1366.0 498.5L1360.0 499.5Q1346.0 500.5 1330.0 501.5L1318.0 503.5Q1268.0 508.5 1241.0 508.5Q1220.0 508.5 1205.0 503.5ZM1192.0 837.5 1201.0 836.5Q1218.0 834.5 1226.0 833.5Q1235.0 832.5 1240.0 832.5Q1249.0 830.5 1252.0 830.5L1318.0 824.5L1374.0 818.5V746.5Q1366.0 747.5 1349.0 750.5Q1278.0 761.5 1250.0 761.5Q1247.0 761.5 1238.0 760.5L1197.0 757.5ZM1199.0 710.5Q1261.0 705.5 1292.0 701.5L1374.0 690.5Q1375.0 672.5 1375.0 661.5Q1375.0 657.5 1375.0 655.5L1371.0 624.5Q1364.0 625.5 1350.0 626.5L1338.0 628.5L1323.0 629.5Q1294.0 632.5 1266.0 632.5H1252.0H1205.0ZM950.0 1029.5Q966.0 998.5 970.0 986.5Q1001.0 906.5 1002.0 861.5Q1003.0 834.5 1020.0 834.5Q1036.0 834.5 1076.0 861.5Q1119.0 891.5 1119.0 908.5Q1119.0 914.5 1102.0 923.5Q1071.0 940.5 1026.0 994.5L998.0 1027.5L1133.0 1006.5Q1159.0 1002.5 1215.0 990.5Q1246.0 982.5 1283.0 975.5L1293.0 973.5L1303.0 971.5L1316.0 968.5L1328.0 966.5Q1345.0 963.5 1349.0 962.5Q1366.0 957.5 1371.0 957.5Q1403.0 957.5 1467.0 992.5Q1512.0 1017.5 1512.0 1034.5Q1512.0 1042.5 1503.0 1051.5L1498.0 1056.5L1495.0 1059.5Q1485.0 1069.5 1477.0 1085.5L1474.0 1090.5L1471.0 1096.5Q1457.0 1124.5 1453.0 1134.5Q1449.0 1143.5 1448.0 1145.5Q1445.0 1152.5 1444.0 1154.5V1155.5L1411.0 1234.5Q1375.0 1320.5 1342.0 1320.5Q1316.0 1320.5 1307.0 1302.5L1300.0 1289.5L943.0 1322.5L937.0 1390.5L1126.0 1364.5Q1150.0 1361.5 1217.0 1348.5L1236.0 1344.5L1248.0 1342.5L1259.0 1340.5L1265.0 1339.5L1270.0 1338.5Q1279.0 1336.5 1284.0 1335.5Q1290.0 1334.5 1292.0 1334.5Q1296.0 1333.5 1297.0 1333.5Q1319.0 1333.5 1363.0 1343.5Q1402.0 1352.5 1402.0 1366.5Q1402.0 1374.5 1385.0 1377.5L1160.0 1411.5Q1026.0 1433.5 977.0 1433.5Q975.0 1433.5 968.0 1432.5L934.0 1429.5L932.0 1471.5L931.0 1484.5Q930.0 1502.5 943.0 1502.5Q952.0 1502.5 971.0 1498.5Q972.0 1498.5 974.0 1498.5L987.0 1496.5L998.0 1494.5L1045.0 1486.5Q1061.0 1483.5 1100.0 1480.5Q1150.0 1475.5 1230.0 1465.5L1252.0 1463.5Q1351.0 1450.5 1413.0 1446.5L1530.0 1438.5Q1564.0 1436.5 1596.0 1431.5L1604.0 1430.5Q1629.0 1426.5 1642.0 1426.5Q1647.0 1426.5 1657.0 1428.5L1663.0 1430.5Q1678.0 1435.5 1686.0 1438.5L1742.0 1460.5Q1811.0 1487.5 1811.0 1515.5Q1809.0 1522.5 1797.0 1537.5Q1769.0 1573.5 1750.0 1700.5L1748.0 1712.5Q1725.0 1853.5 1692.0 1893.5Q1630.0 1970.5 1575.0 1970.5Q1559.0 1970.5 1549.0 1950.5L1530.0 1912.5Q1529.0 1911.5 1527.0 1907.5Q1526.0 1906.5 1523.0 1902.5Q1520.0 1898.5 1513.0 1888.5L1506.0 1878.5L1501.0 1871.5L1496.0 1864.5Q1485.0 1849.5 1483.0 1847.5Q1477.0 1839.5 1476.0 1837.5Q1475.0 1836.5 1475.0 1835.5L1448.0 1802.5Q1442.0 1795.5 1442.0 1792.5Q1442.0 1782.5 1455.0 1783.5Q1458.0 1783.5 1461.0 1784.5L1505.0 1798.5Q1538.0 1808.5 1550.0 1813.5Q1556.0 1815.5 1557.0 1815.5Q1560.0 1816.5 1564.0 1817.5Q1567.0 1819.5 1572.0 1819.5Q1610.0 1822.5 1626.0 1744.5Q1633.0 1712.5 1634.0 1706.5L1647.0 1638.5Q1651.0 1615.5 1652.0 1571.5Q1652.0 1561.5 1652.0 1559.5Q1653.0 1552.5 1653.0 1550.5V1543.5Q1653.0 1501.5 1594.0 1501.5Q1547.0 1501.5 1470.0 1504.5L1349.0 1509.5Q1345.0 1509.5 1333.0 1511.5Q1330.0 1511.5 1308.0 1513.5Q1302.0 1514.5 1230.0 1522.5L1101.0 1537.5Q1052.0 1543.5 980.0 1562.5Q931.0 1575.5 904.0 1589.5Q891.0 1596.5 885.0 1596.5Q863.0 1596.5 839.0 1548.5Q827.0 1524.5 826.0 1516.5Q826.0 1513.5 828.0 1506.5Q830.0 1502.5 832.0 1496.5Q842.0 1476.5 846.0 1446.5L854.0 1390.5Q854.0 1387.5 854.0 1379.5Q855.0 1375.5 855.0 1361.5Q857.0 1333.5 859.0 1302.5L866.0 1149.5V1135.5V1122.5Q866.0 1084.5 857.0 1062.5L843.0 1030.5Q839.0 1021.5 839.0 1015.5Q839.0 1002.5 861.0 1002.5Q873.0 1002.5 900.0 1011.5Q909.0 1014.5 916.0 1017.5Q922.0 1019.5 923.0 1019.5Q930.0 1022.5 933.0 1022.5ZM946.0 1270.5 1134.0 1244.5Q1159.0 1241.5 1185.0 1235.5L1192.0 1234.5Q1221.0 1228.5 1233.0 1228.5Q1234.0 1228.5 1238.0 1229.5Q1239.0 1229.5 1245.0 1230.5Q1278.0 1234.5 1292.0 1239.5Q1300.0 1242.5 1303.0 1242.5H1304.0H1305.0Q1310.0 1242.5 1318.0 1223.5L1330.0 1196.5L1345.0 1149.5Q1335.0 1151.5 1311.0 1154.5L1291.0 1158.5L1272.0 1161.5L1254.0 1164.5Q1240.0 1166.5 1232.0 1167.5Q1213.0 1171.5 1200.0 1172.5Q1191.0 1174.5 1180.0 1175.5Q1168.0 1177.5 1163.0 1178.5L1099.0 1189.5Q1034.0 1200.5 1006.0 1200.5Q997.0 1200.5 985.0 1199.5L950.0 1197.5ZM954.0 1158.5 1149.0 1123.5 1205.0 1114.5 1222.0 1111.5Q1253.0 1105.5 1263.0 1105.5Q1279.0 1105.5 1299.0 1109.5L1350.0 1119.5Q1352.0 1111.5 1354.0 1097.5Q1355.0 1095.5 1358.0 1083.5L1359.0 1078.5Q1363.0 1058.5 1363.0 1044.5Q1363.0 1022.5 1346.0 1022.5Q1342.0 1022.5 1331.0 1024.5Q1314.0 1027.5 1291.0 1030.5Q1278.0 1031.5 1237.0 1038.5L1212.0 1042.5L1108.0 1059.5L1072.0 1065.5Q1025.0 1073.5 1016.0 1073.5L962.0 1076.5Q961.0 1081.5 960.0 1092.5Q959.0 1100.5 958.0 1111.5ZM752.0 1600.5 759.0 1627.5Q769.0 1667.5 769.0 1698.5Q769.0 1763.5 741.0 1818.5Q707.0 1883.5 674.0 1883.5Q656.0 1883.5 641.0 1863.5Q625.0 1842.5 625.0 1804.5Q625.0 1769.5 640.0 1746.5L669.0 1701.5Q677.0 1688.5 689.0 1662.5Q690.0 1662.5 692.0 1657.5Q694.0 1653.5 700.0 1641.5Q702.0 1637.5 705.0 1631.5Q707.0 1628.5 708.0 1627.5L722.0 1600.5Q730.0 1585.5 739.0 1585.5Q748.0 1585.5 752.0 1600.5ZM927.0 1627.5 953.0 1641.5Q1007.0 1670.5 1024.0 1696.5Q1037.0 1715.5 1037.0 1758.5V1767.5Q1037.0 1791.5 1023.0 1809.5Q1008.0 1829.5 993.0 1829.5Q969.0 1829.5 949.0 1767.5Q942.0 1745.5 925.0 1703.5Q916.0 1679.5 912.0 1661.5L906.0 1639.5Q905.0 1637.5 905.0 1634.5Q905.0 1624.5 917.0 1625.5Q924.0 1626.5 927.0 1627.5ZM1374.0 1557.5 1402.0 1567.5Q1511.0 1606.5 1511.0 1665.5Q1511.0 1699.5 1495.0 1723.5Q1482.0 1741.5 1466.0 1741.5Q1441.0 1741.5 1414.0 1690.5L1388.0 1643.5Q1379.0 1628.5 1371.0 1610.5L1354.0 1574.5Q1350.0 1566.5 1350.0 1563.5Q1350.0 1554.5 1359.0 1554.5Q1365.0 1554.5 1374.0 1557.5ZM1158.0 1675.5 1144.0 1645.5 1130.0 1613.5Q1127.0 1607.5 1127.0 1605.5Q1127.0 1594.5 1139.0 1594.5Q1143.0 1594.5 1149.0 1596.5L1177.0 1606.5Q1234.0 1627.5 1256.0 1659.5Q1273.0 1684.5 1273.0 1733.5Q1273.0 1799.5 1242.0 1797.5Q1206.0 1794.5 1179.0 1727.5Z" fill="black"></path></svg>